<?xml version="1.0" standalone="no"?>
<!DOCTYPE svg PUBLIC "-//W3C//DTD SVG 20010904//EN"
 "http://www.w3.org/TR/2001/REC-SVG-20010904/DTD/svg10.dtd">
<svg version="1.0" xmlns="http://www.w3.org/2000/svg"
 width="387.000000pt" height="387.000000pt" viewBox="0 0 387.000000 387.000000"
 preserveAspectRatio="xMidYMid meet">
<metadata>
Created by potrace 1.11, written by Peter Selinger 2001-2013
</metadata>
<g transform="translate(0.000000,387.000000) scale(0.100000,-0.100000)"
fill="#000000" stroke="none">
<path d="M434 3846 c-123 -40 -220 -109 -303 -215 -53 -68 -86 -138 -111 -236
-19 -76 -20 -112 -19 -1449 0 -841 4 -1390 10 -1421 20 -103 85 -239 155 -325
62 -75 162 -146 252 -180 52 -20 75 -20 1531 -18 l1477 3 75 37 c87 43 148 92
205 162 46 58 98 147 121 209 43 118 42 92 40 1557 l-2 1395 -28 80 c-67 190
-202 329 -385 398 l-57 22 -1445 2 -1445 2 -71 -23z"/>
</g>
</svg>
